<svg version="1.1" id="Layer_1" xmlns="http://www.w3.org/2000/svg" xmlns:xlink="http://www.w3.org/1999/xlink" x="0px" y="0px"
	 width="100%" viewBox="0 0 7973 7973" enable-background="new 0 0 7973 7973" xml:space="preserve">
<path fill="#000000" opacity="1.000000" stroke="none" 
	d="
M4.000000,2868.000000 
	C4.000000,1912.000000 4.000000,958.000000 4.000000,4.000000 
	C2662.666748,4.000000 5321.333496,4.000000 7980.000000,4.000000 
	C7980.000000,2662.666748 7980.000000,5321.333496 7980.000000,7980.000000 
	C5321.333496,7980.000000 2662.666748,7980.000000 4.000001,7980.000000 
	C4.000000,6276.666504 4.000000,4573.333496 4.000000,2868.000000 
M843.057861,5648.058594 
	C851.055725,5648.039062 859.053650,5648.002930 867.051514,5648.002930 
	C1536.874268,5648.000488 2206.697021,5648.002930 2876.519775,5647.972656 
	C2886.508545,5647.972168 2896.497559,5647.564453 2908.964355,5647.861816 
	C2910.832275,5647.354980 2912.700439,5646.849121 2914.567871,5646.340820 
	C2931.813965,5641.645020 2936.758545,5645.046875 2936.933594,5662.135742 
	C2937.519531,5719.425293 2938.312500,5776.715820 2938.428955,5834.006348 
	C2938.500732,5869.281738 2937.025146,5904.559570 2937.032959,5939.835938 
	C2937.080078,6154.492188 2937.358887,6369.148926 2937.491455,6583.805176 
	C2937.492920,6586.360840 2936.582031,6588.917480 2936.187744,6590.996582 
	C2928.294189,6594.408203 2921.107178,6597.562988 2913.873779,6600.606445 
	C2912.061523,6601.369629 2910.127197,6602.140137 2908.202148,6602.285156 
	C2898.520264,6603.015625 2887.912109,6600.198242 2880.688721,6609.848633 
	C2870.044434,6608.665039 2861.992920,6615.407227 2852.832764,6618.840820 
	C2831.865967,6626.701660 2813.087646,6638.608887 2795.364014,6651.770020 
	C2768.425781,6671.774902 2742.935059,6693.664062 2723.126953,6721.183594 
	C2713.976562,6733.895996 2705.557373,6747.135742 2696.806885,6760.136230 
	C2697.608398,6766.555664 2690.546875,6768.590332 2689.212891,6773.362793 
	C2687.602539,6779.122070 2687.171387,6785.046387 2680.982178,6788.060059 
	C2677.574219,6800.314453 2667.104004,6810.444336 2670.380859,6824.793945 
	C2671.221680,6828.476074 2671.215332,6833.000977 2667.252441,6835.656250 
	C2660.018799,6840.502930 2660.641846,6848.023926 2660.067383,6855.290039 
	C2659.712158,6859.784668 2660.172119,6865.460449 2657.681641,6868.461914 
	C2649.833496,6877.920410 2650.950439,6887.878418 2651.907227,6893.128906 
	C2662.207520,6911.799316 2675.635254,6911.665039 2689.274414,6910.976562 
	C2691.269287,6910.875488 2693.273682,6910.972168 2695.273682,6910.962402 
	C2800.559326,6910.451172 2905.844727,6909.651855 3011.130859,6909.480957 
	C3308.441895,6908.999023 3605.753174,6908.596191 3903.064453,6908.516602 
	C4077.044678,6908.470215 4251.024902,6909.051270 4425.005371,6909.437500 
	C4631.629883,6909.896484 4838.254883,6910.577637 5044.879395,6910.917969 
	C5185.543945,6911.149414 5326.209961,6910.965820 5466.875000,6910.950684 
	C5472.204590,6910.950195 5477.593750,6911.234863 5482.850098,6910.562988 
	C5490.797852,6909.546387 5497.242676,6904.742188 5498.894043,6897.286621 
	C5501.776367,6884.275391 5503.092285,6870.483887 5495.492676,6858.586914 
	C5492.364258,6853.689453 5491.298340,6849.270020 5490.916016,6843.926758 
	C5490.638672,6840.057617 5490.454102,6835.128906 5488.121094,6832.680176 
	C5483.364258,6827.688477 5483.668945,6822.074707 5482.795410,6816.146973 
	C5481.958008,6810.469238 5479.276367,6805.045898 5477.250977,6799.567383 
	C5476.129883,6796.534668 5473.669434,6793.641602 5473.599609,6790.643555 
	C5473.416992,6782.805176 5469.829102,6776.808105 5465.544434,6770.688965 
	C5457.295410,6758.905273 5451.424316,6745.488770 5441.029785,6735.157715 
	C5439.672363,6733.807617 5438.490234,6732.088867 5437.773926,6730.319824 
	C5432.238281,6716.657227 5422.217773,6706.187988 5412.618652,6695.554688 
	C5390.753418,6671.335938 5362.954102,6654.596191 5336.571777,6636.063965 
	C5329.057617,6630.785645 5319.538086,6629.286133 5312.693359,6624.045898 
	C5307.461426,6620.039551 5301.221191,6620.612793 5296.804199,6617.134277 
	C5291.862305,6613.241699 5286.344238,6612.176270 5280.816406,6610.096191 
	C5268.402832,6605.424316 5256.331543,6600.578613 5242.717773,6602.232422 
	C5242.129883,6602.303223 5241.467773,6601.819824 5240.849609,6601.572754 
	C5233.000000,6598.440430 5225.152344,6595.303711 5215.874023,6591.596680 
	C5215.874023,6577.039062 5215.874023,6561.818359 5215.874023,6546.598145 
	C5215.874023,6335.267090 5215.886719,6123.935547 5215.841797,5912.604492 
	C5215.839355,5901.284668 5215.149414,5889.965820 5215.134766,5878.645508 
	C5215.052246,5814.673828 5215.078613,5750.701660 5215.066895,5686.729980 
	C5215.065430,5678.063477 5214.870117,5669.391602 5215.106445,5660.731934 
	C5215.414062,5649.466309 5219.793945,5644.922363 5230.494141,5644.456055 
	C5235.151855,5644.252930 5239.825684,5644.413086 5244.492188,5644.413086 
	C5495.156738,5644.411133 5745.820801,5644.409668 5996.485352,5644.408203 
	C6001.151855,5644.408203 6005.832031,5644.198730 6010.480469,5644.490234 
	C6013.723145,5644.692871 6017.319336,5644.846191 6020.063477,5646.316895 
	C6026.974609,5650.022949 6034.280762,5649.400879 6041.563965,5649.407227 
	C6085.563477,5649.447754 6129.562988,5649.434082 6173.562500,5649.426270 
	C6218.153320,5649.418457 6262.744629,5649.412109 6307.335449,5649.342773 
	C6309.976074,5649.338379 6312.961426,5649.471191 6315.197754,5648.357422 
	C6325.898438,5643.030273 6337.289551,5644.468750 6348.519531,5644.434570 
	C6375.852539,5644.351074 6403.186035,5644.399414 6430.519043,5644.416504 
	C6434.516113,5644.418945 6439.217773,5643.190918 6442.382324,5644.846680 
	C6453.113770,5650.459961 6464.140625,5648.580566 6475.406738,5648.545898 
	C6518.639648,5648.412598 6561.875000,5649.037598 6605.108887,5649.437500 
	C6637.036621,5649.732910 6668.953613,5648.780273 6700.892578,5649.275391 
	C6741.484863,5649.904785 6782.093750,5649.427734 6822.695801,5649.427734 
	C6926.694824,5649.427734 7030.693848,5649.467285 7134.692871,5649.339844 
	C7141.934082,5649.331055 7149.624512,5649.365234 7156.279785,5647.026367 
	C7162.206055,5644.944336 7167.838867,5644.452637 7173.775879,5644.436035 
	C7189.775879,5644.390625 7205.775391,5644.469727 7221.775391,5644.420410 
	C7225.709473,5644.408691 7230.124512,5645.140625 7232.788086,5641.293457 
	C7235.885254,5636.820312 7240.212891,5636.583496 7245.009277,5636.227051 
	C7248.865723,5635.939941 7254.037598,5635.500488 7256.144043,5633.020508 
	C7261.489258,5626.727539 7269.573242,5628.065430 7275.624023,5624.254395 
	C7282.307129,5620.044434 7289.334473,5616.380859 7296.001953,5612.148438 
	C7308.083008,5604.479980 7320.802246,5597.853516 7332.156738,5588.988770 
	C7359.601074,5567.561523 7377.289551,5538.464355 7394.473145,5509.175293 
	C7399.240723,5501.048340 7407.036621,5493.296875 7404.935547,5482.055176 
	C7404.663574,5480.600586 7406.126953,5477.927734 7407.506348,5477.219238 
	C7412.510254,5474.645996 7412.897461,5470.266602 7413.539551,5465.517090 
	C7414.057129,5461.694824 7414.748047,5457.348633 7416.944336,5454.421387 
	C7420.891602,5449.159668 7421.338379,5443.463867 7421.430664,5437.468750 
	C7421.512695,5432.136719 7421.457520,5426.802734 7421.457520,5421.469238 
	C7421.457520,4045.482422 7421.458496,2669.495850 7421.457031,1293.509033 
	C7421.457031,1288.842407 7421.494629,1284.175293 7421.440430,1279.509277 
	C7421.347656,1271.486450 7419.849121,1264.177368 7416.012207,1256.643677 
	C7411.942871,1248.652954 7407.412598,1240.399902 7405.088867,1231.852783 
	C7403.179199,1224.827271 7403.444336,1217.391235 7397.360352,1212.104980 
	C7393.811523,1197.435791 7381.919922,1187.678955 7375.196777,1174.764771 
	C7370.147461,1165.065918 7362.316406,1156.592407 7354.761719,1148.467896 
	C7339.402832,1131.949829 7320.118652,1120.217041 7301.823242,1107.388062 
	C7295.590820,1103.018188 7288.492188,1099.305786 7281.651367,1096.280151 
	C7276.469238,1093.988525 7271.167969,1093.204590 7266.373535,1088.942505 
	C7262.302734,1085.323730 7255.261719,1085.291260 7250.258789,1082.413330 
	C7244.084473,1078.861206 7237.446777,1079.532104 7231.061523,1078.133789 
	C7224.187012,1076.627930 7217.942871,1072.091187 7211.062988,1070.802856 
	C7203.974121,1069.475464 7196.451172,1070.449829 7189.118164,1070.449829 
	C5059.805176,1070.447021 2930.492188,1070.446899 801.179260,1070.447510 
	C795.846008,1070.447510 790.489685,1070.155640 785.187073,1070.561279 
	C781.294312,1070.858887 776.659912,1070.982544 773.789185,1073.114014 
	C768.052246,1077.373291 762.149841,1078.579712 755.247314,1078.704468 
	C750.878540,1078.783325 746.022766,1080.271118 742.313904,1082.603516 
	C734.644775,1087.426270 724.349731,1087.097290 718.381958,1095.027222 
	C707.427307,1093.306396 701.937317,1105.027100 691.980530,1105.760742 
	C664.986816,1125.726074 636.491882,1144.033569 617.212219,1172.596680 
	C612.414062,1179.705078 609.412354,1188.711792 603.168213,1193.982910 
	C595.579468,1200.389038 598.431946,1212.270264 588.876831,1216.841187 
	C587.787476,1217.362305 587.579590,1220.512695 587.609985,1222.433716 
	C587.686707,1227.273804 586.227051,1231.197144 583.342041,1235.251831 
	C580.819397,1238.796997 580.080200,1243.606323 578.525269,1247.846924 
	C577.425537,1250.846069 576.972900,1254.432495 575.006714,1256.690186 
	C571.117432,1261.155762 570.614075,1266.184692 570.542175,1271.581787 
	C570.385681,1283.321655 572.320251,1295.309570 563.666504,1305.614624 
	C561.411621,1308.299927 561.404541,1313.225220 561.163818,1317.170410 
	C560.758484,1323.813843 560.961548,1330.496216 560.961548,1337.162231 
	C560.957092,2687.815918 560.957153,4038.469727 560.957275,5389.123535 
	C560.957275,5393.790039 560.979248,5398.456543 560.953796,5403.123047 
	C560.909790,5411.181641 561.300293,5418.830566 567.419067,5425.429199 
	C569.740967,5427.932617 570.137695,5432.709473 570.406677,5436.520996 
	C570.874878,5443.155762 570.285278,5449.862305 570.698853,5456.504395 
	C570.894836,5459.653320 571.534241,5463.432617 573.434692,5465.701660 
	C580.794617,5474.489258 579.332825,5487.213379 587.292725,5495.583008 
	C587.874695,5507.423828 596.697815,5515.209961 601.827698,5524.782227 
	C613.215698,5546.032227 630.662659,5562.000488 648.335449,5577.933594 
	C685.591187,5611.523926 686.431030,5612.408203 727.235901,5627.861328 
	C728.997986,5628.528809 730.320129,5630.282715 732.035889,5631.163574 
	C735.459045,5632.919922 738.912170,5634.723145 742.543762,5635.934570 
	C745.633545,5636.965820 749.983032,5636.091797 752.060181,5637.963867 
	C761.114136,5646.121094 771.908936,5644.259277 782.426758,5644.458496 
	C789.076111,5644.584473 796.678345,5642.742676 802.179382,5645.335449 
	C814.570435,5651.174805 826.715027,5649.580566 843.057861,5648.058594 
z"/>
<path fill="#E7EBEE" opacity="1.000000" stroke="none" 
	d="
M839.211304,5647.958496 
	C826.715027,5649.580566 814.570435,5651.174805 802.179382,5645.335449 
	C796.678345,5642.742676 789.076111,5644.584473 782.426758,5644.458496 
	C771.908936,5644.259277 761.114136,5646.121094 752.060181,5637.963867 
	C749.983032,5636.091797 745.633545,5636.965820 742.543762,5635.934570 
	C738.912170,5634.723145 735.459045,5632.919922 732.035889,5631.163574 
	C730.320129,5630.282715 728.997986,5628.528809 727.235901,5627.861328 
	C686.431030,5612.408203 685.591187,5611.523926 648.335449,5577.933594 
	C630.662659,5562.000488 613.215698,5546.032227 601.827698,5524.782227 
	C596.697815,5515.209961 587.874695,5507.423828 587.292725,5495.583008 
	C579.332825,5487.213379 580.794617,5474.489258 573.434692,5465.701660 
	C571.534241,5463.432617 570.894836,5459.653320 570.698853,5456.504395 
	C570.285278,5449.862305 570.874878,5443.155762 570.406677,5436.520996 
	C570.137695,5432.709473 569.740967,5427.932617 567.419067,5425.429199 
	C561.300293,5418.830566 560.909790,5411.181641 560.953796,5403.123047 
	C560.979248,5398.456543 560.957275,5393.790039 560.957275,5389.123535 
	C560.957153,4038.469727 560.957092,2687.815918 560.961548,1337.162231 
	C560.961548,1330.496216 560.758484,1323.813843 561.163818,1317.170410 
	C561.404541,1313.225220 561.411621,1308.299927 563.666504,1305.614624 
	C572.320251,1295.309570 570.385681,1283.321655 570.542175,1271.581787 
	C570.614075,1266.184692 571.117432,1261.155762 575.006714,1256.690186 
	C576.972900,1254.432495 577.425537,1250.846069 578.525269,1247.846924 
	C580.080200,1243.606323 580.819397,1238.796997 583.342041,1235.251831 
	C586.227051,1231.197144 587.686707,1227.273804 587.609985,1222.433716 
	C587.579590,1220.512695 587.787476,1217.362305 588.876831,1216.841187 
	C598.431946,1212.270264 595.579468,1200.389038 603.168213,1193.982910 
	C609.412354,1188.711792 612.414062,1179.705078 617.212219,1172.596680 
	C636.491882,1144.033569 664.986816,1125.726074 691.980530,1105.760742 
	C701.937317,1105.027100 707.427307,1093.306396 718.381958,1095.027222 
	C724.349731,1087.097290 734.644775,1087.426270 742.313904,1082.603516 
	C746.022766,1080.271118 750.878540,1078.783325 755.247314,1078.704468 
	C762.149841,1078.579712 768.052246,1077.373291 773.789185,1073.114014 
	C776.659912,1070.982544 781.294312,1070.858887 785.187073,1070.561279 
	C790.489685,1070.155640 795.846008,1070.447510 801.179260,1070.447510 
	C2930.492188,1070.446899 5059.805176,1070.447021 7189.118164,1070.449829 
	C7196.451172,1070.449829 7203.974121,1069.475464 7211.062988,1070.802856 
	C7217.942871,1072.091187 7224.187012,1076.627930 7231.061523,1078.133789 
	C7237.446777,1079.532104 7244.084473,1078.861206 7250.258789,1082.413330 
	C7255.261719,1085.291260 7262.302734,1085.323730 7266.373535,1088.942505 
	C7271.167969,1093.204590 7276.469238,1093.988525 7281.651367,1096.280151 
	C7288.492188,1099.305786 7295.590820,1103.018188 7301.823242,1107.388062 
	C7320.118652,1120.217041 7339.402832,1131.949829 7354.761719,1148.467896 
	C7362.316406,1156.592407 7370.147461,1165.065918 7375.196777,1174.764771 
	C7381.919922,1187.678955 7393.811523,1197.435791 7397.360352,1212.104980 
	C7403.444336,1217.391235 7403.179199,1224.827271 7405.088867,1231.852783 
	C7407.412598,1240.399902 7411.942871,1248.652954 7416.012207,1256.643677 
	C7419.849121,1264.177368 7421.347656,1271.486450 7421.440430,1279.509277 
	C7421.494629,1284.175293 7421.457031,1288.842407 7421.457031,1293.509033 
	C7421.458496,2669.495850 7421.457520,4045.482422 7421.457520,5421.469238 
	C7421.457520,5426.802734 7421.512695,5432.136719 7421.430664,5437.468750 
	C7421.338379,5443.463867 7420.891602,5449.159668 7416.944336,5454.421387 
	C7414.748047,5457.348633 7414.057129,5461.694824 7413.539551,5465.517090 
	C7412.897461,5470.266602 7412.510254,5474.645996 7407.506348,5477.219238 
	C7406.126953,5477.927734 7404.663574,5480.600586 7404.935547,5482.055176 
	C7407.036621,5493.296875 7399.240723,5501.048340 7394.473145,5509.175293 
	C7377.289551,5538.464355 7359.601074,5567.561523 7332.156738,5588.988770 
	C7320.802246,5597.853516 7308.083008,5604.479980 7296.001953,5612.148438 
	C7289.334473,5616.380859 7282.307129,5620.044434 7275.624023,5624.254395 
	C7269.573242,5628.065430 7261.489258,5626.727539 7256.144043,5633.020508 
	C7254.037598,5635.500488 7248.865723,5635.939941 7245.009277,5636.227051 
	C7240.212891,5636.583496 7235.885254,5636.820312 7232.788086,5641.293457 
	C7230.124512,5645.140625 7225.709473,5644.408691 7221.775391,5644.420410 
	C7205.775391,5644.469727 7189.775879,5644.390625 7173.775879,5644.436035 
	C7167.838867,5644.452637 7162.206055,5644.944336 7156.279785,5647.026367 
	C7149.624512,5649.365234 7141.934082,5649.331055 7134.692871,5649.339844 
	C7030.693848,5649.467285 6926.694824,5649.427734 6822.695801,5649.427734 
	C6782.093750,5649.427734 6741.484863,5649.904785 6700.892578,5649.275391 
	C6668.953613,5648.780273 6637.036621,5649.732910 6605.108887,5649.437500 
	C6561.875000,5649.037598 6518.639648,5648.412598 6475.406738,5648.545898 
	C6464.140625,5648.580566 6453.113770,5650.459961 6442.382324,5644.846680 
	C6439.217773,5643.190918 6434.516113,5644.418945 6430.519043,5644.416504 
	C6403.186035,5644.399414 6375.852539,5644.351074 6348.519531,5644.434570 
	C6337.289551,5644.468750 6325.898438,5643.030273 6315.197754,5648.357422 
	C6312.961426,5649.471191 6309.976074,5649.338379 6307.335449,5649.342773 
	C6262.744629,5649.412109 6218.153320,5649.418457 6173.562500,5649.426270 
	C6129.562988,5649.434082 6085.563477,5649.447754 6041.563965,5649.407227 
	C6034.280762,5649.400879 6026.974609,5650.022949 6020.063477,5646.316895 
	C6017.319336,5644.846191 6013.723145,5644.692871 6010.480469,5644.490234 
	C6005.832031,5644.198730 6001.151855,5644.408203 5996.485352,5644.408203 
	C5745.820801,5644.409668 5495.156738,5644.411133 5244.492188,5644.413086 
	C5239.825684,5644.413086 5235.151855,5644.252930 5230.494141,5644.456055 
	C5219.793945,5644.922363 5215.414062,5649.466309 5215.106445,5660.731934 
	C5214.870117,5669.391602 5215.065430,5678.063477 5215.066895,5686.729980 
	C5215.078613,5750.701660 5215.052246,5814.673828 5215.134766,5878.645508 
	C5215.149414,5889.965820 5215.839355,5901.284668 5215.841797,5912.604492 
	C5215.886719,6123.935547 5215.874023,6335.267090 5215.874023,6546.598145 
	C5215.874023,6561.818359 5215.874023,6577.039062 5215.874023,6591.596680 
	C5225.152344,6595.303711 5233.000000,6598.440430 5240.849609,6601.572754 
	C5241.467773,6601.819824 5242.129883,6602.303223 5242.717773,6602.232422 
	C5256.331543,6600.578613 5268.402832,6605.424316 5280.816406,6610.096191 
	C5286.344238,6612.176270 5291.862305,6613.241699 5296.804199,6617.134277 
	C5301.221191,6620.612793 5307.461426,6620.039551 5312.693359,6624.045898 
	C5319.538086,6629.286133 5329.057617,6630.785645 5336.571777,6636.063965 
	C5362.954102,6654.596191 5390.753418,6671.335938 5412.618652,6695.554688 
	C5422.217773,6706.187988 5432.238281,6716.657227 5437.773926,6730.319824 
	C5438.490234,6732.088867 5439.672363,6733.807617 5441.029785,6735.157715 
	C5451.424316,6745.488770 5457.295410,6758.905273 5465.544434,6770.688965 
	C5469.829102,6776.808105 5473.416992,6782.805176 5473.599609,6790.643555 
	C5473.669434,6793.641602 5476.129883,6796.534668 5477.250977,6799.567383 
	C5479.276367,6805.045898 5481.958008,6810.469238 5482.795410,6816.146973 
	C5483.668945,6822.074707 5483.364258,6827.688477 5488.121094,6832.680176 
	C5490.454102,6835.128906 5490.638672,6840.057617 5490.916016,6843.926758 
	C5491.298340,6849.270020 5492.364258,6853.689453 5495.492676,6858.586914 
	C5503.092285,6870.483887 5501.776367,6884.275391 5498.894043,6897.286621 
	C5497.242676,6904.742188 5490.797852,6909.546387 5482.850098,6910.562988 
	C5477.593750,6911.234863 5472.204590,6910.950195 5466.875000,6910.950684 
	C5326.209961,6910.965820 5185.543945,6911.149414 5044.879395,6910.917969 
	C4838.254883,6910.577637 4631.629883,6909.896484 4425.005371,6909.437500 
	C4251.024902,6909.051270 4077.044678,6908.470215 3903.064453,6908.516602 
	C3605.753174,6908.596191 3308.441895,6908.999023 3011.130859,6909.480957 
	C2905.844727,6909.651855 2800.559326,6910.451172 2695.273682,6910.962402 
	C2693.273682,6910.972168 2691.269287,6910.875488 2689.274414,6910.976562 
	C2675.635254,6911.665039 2662.207520,6911.799316 2651.907227,6893.128906 
	C2650.950439,6887.878418 2649.833496,6877.920410 2657.681641,6868.461914 
	C2660.172119,6865.460449 2659.712158,6859.784668 2660.067383,6855.290039 
	C2660.641846,6848.023926 2660.018799,6840.502930 2667.252441,6835.656250 
	C2671.215332,6833.000977 2671.221680,6828.476074 2670.380859,6824.793945 
	C2667.104004,6810.444336 2677.574219,6800.314453 2680.982178,6788.060059 
	C2687.171387,6785.046387 2687.602539,6779.122070 2689.212891,6773.362793 
	C2690.546875,6768.590332 2697.608398,6766.555664 2696.806885,6760.136230 
	C2705.557373,6747.135742 2713.976562,6733.895996 2723.126953,6721.183594 
	C2742.935059,6693.664062 2768.425781,6671.774902 2795.364014,6651.770020 
	C2813.087646,6638.608887 2831.865967,6626.701660 2852.832764,6618.840820 
	C2861.992920,6615.407227 2870.044434,6608.665039 2880.688721,6609.848633 
	C2887.912109,6600.198242 2898.520264,6603.015625 2908.202148,6602.285156 
	C2910.127197,6602.140137 2912.061523,6601.369629 2913.873779,6600.606445 
	C2921.107178,6597.562988 2928.294189,6594.408203 2936.187744,6590.996582 
	C2936.582031,6588.917480 2937.492920,6586.360840 2937.491455,6583.805176 
	C2937.358887,6369.148926 2937.080078,6154.492188 2937.032959,5939.835938 
	C2937.025146,5904.559570 2938.500732,5869.281738 2938.428955,5834.006348 
	C2938.312500,5776.715820 2937.519531,5719.425293 2936.933594,5662.135742 
	C2936.758545,5645.046875 2931.813965,5641.645020 2914.567871,5646.340820 
	C2912.700439,5646.849121 2910.832275,5647.354980 2907.383789,5646.629883 
	C2905.352051,5644.885742 2904.900635,5644.372559 2906.232422,5643.869141 
	C2914.011719,5643.840332 2920.008789,5643.859375 2926.003418,5643.744629 
	C2931.787109,5643.633789 2937.568115,5643.384766 2945.778320,5643.118164 
	C2942.165527,5641.323242 2941.039307,5640.273438 2939.913330,5640.273438 
	C2233.022949,5640.216797 1526.132324,5640.231934 819.241760,5640.282715 
	C818.654419,5640.282715 817.994934,5640.758789 817.511047,5641.176758 
	C817.276489,5641.379883 817.371399,5641.963379 817.171631,5643.480957 
	C825.058533,5643.760254 832.895996,5644.037598 840.334595,5645.218750 
	C839.935608,5646.121582 839.211304,5647.958496 839.211304,5647.958496 
M656.888733,5574.064453 
	C657.606628,5574.895996 658.466675,5575.536621 661.942871,5577.058105 
	C666.661255,5581.169434 671.379639,5585.280273 677.020874,5590.454102 
	C677.712708,5591.105957 678.498962,5591.610352 681.856995,5592.732910 
	C686.665161,5596.266602 691.473328,5599.800293 697.433594,5605.479004 
	C699.659302,5606.279785 701.885010,5607.080566 706.964966,5608.401855 
	C724.107788,5617.159180 741.704041,5624.855957 760.444946,5629.447754 
	C767.384216,5631.147949 774.645325,5631.534180 783.215942,5634.322266 
	C784.707214,5634.516602 786.198486,5634.710449 791.385437,5635.823730 
	C806.681335,5636.523926 821.977173,5637.833984 837.273193,5637.836426 
	C1515.052856,5637.940430 2192.832520,5637.928711 2870.612305,5637.930664 
	C2891.272217,5637.930664 2911.934326,5637.756836 2932.590820,5638.028809 
	C2939.159668,5638.115234 2945.712891,5639.386719 2952.280518,5643.850586 
	C2952.291260,5957.229004 2952.305908,6270.606934 2952.285645,6583.985352 
	C2952.285400,6590.629395 2951.881104,6597.273438 2948.585205,6604.045410 
	C2895.645020,6612.154297 2846.944092,6631.049805 2803.574219,6662.580078 
	C2729.416016,6716.494629 2684.767578,6788.967773 2669.235596,6879.313477 
	C2668.154297,6885.603516 2666.114990,6892.163086 2669.118896,6898.286133 
	C2687.251465,6900.455078 5420.190918,6901.913086 5476.813477,6899.809082 
	C5480.018555,6899.689941 5483.197266,6898.851074 5486.898438,6898.267090 
	C5486.898438,6895.030762 5487.221191,6892.368652 5486.852051,6889.806152 
	C5472.575195,6790.688477 5424.409180,6712.568848 5341.547363,6656.144531 
	C5299.483398,6627.501465 5252.665039,6611.100586 5202.390625,6599.734375 
	C5202.320312,6595.073730 5202.188965,6590.413086 5202.188477,6585.752441 
	C5202.179199,6276.069336 5202.177734,5966.385742 5202.201660,5656.702637 
	C5202.202148,5650.714844 5202.514160,5644.727539 5205.487793,5638.426758 
	C5213.463379,5638.260742 5221.439453,5637.950684 5229.415039,5637.949707 
	C5439.681152,5637.923828 5649.947266,5637.943848 5860.213379,5637.877930 
	C5868.151367,5637.875488 5876.088867,5637.097168 5887.661133,5637.651367 
	C5894.314453,5637.814453 5900.967773,5638.119629 5907.621094,5638.120117 
	C6321.221191,5638.137695 6734.820801,5638.132812 7148.420898,5638.112793 
	C7157.077637,5638.112305 7165.745117,5638.151367 7174.390137,5637.773438 
	C7279.161133,5633.194824 7368.799805,5564.423828 7400.639648,5464.497559 
	C7411.943848,5429.021484 7413.952637,5392.702637 7412.190918,5352.217773 
	C7412.241211,5346.221191 7412.334961,5340.224121 7412.334961,5334.227539 
	C7412.341309,4011.486572 7412.342773,2688.745850 7412.306152,1366.005005 
	C7412.305664,1358.698364 7411.768066,1351.391846 7412.169922,1340.554077 
	C7412.175293,1335.222168 7412.397949,1329.880127 7412.152832,1324.559692 
	C7408.165527,1238.003662 7370.543945,1170.078247 7298.570312,1121.775024 
	C7257.568848,1094.258301 7211.599609,1082.124512 7162.495605,1081.470703 
	C7138.500488,1081.151123 7114.497070,1081.413330 7090.497559,1081.413330 
	C5860.518066,1081.413574 4630.538086,1081.411621 3400.558594,1081.465332 
	C3393.273193,1081.465698 3385.987793,1082.242798 3375.282227,1081.778931 
	C3363.955811,1081.734253 3352.629150,1081.650757 3341.302734,1081.650757 
	C2804.941406,1081.649414 2268.580078,1081.656372 1732.218872,1081.660034 
	C1432.389648,1081.662109 1132.560181,1081.587402 832.731262,1081.841309 
	C814.834167,1081.856445 796.643677,1082.908203 779.098572,1086.194580 
	C725.015869,1096.324463 678.992249,1121.980835 642.125427,1162.926147 
	C595.803040,1214.373047 574.255432,1274.956055 576.991882,1347.905396 
	C576.936401,1353.904175 576.832336,1359.903076 576.832336,1365.901855 
	C576.824829,2688.549316 576.823364,4011.196777 576.859741,5333.844238 
	C576.859924,5341.155762 577.395996,5348.466797 576.987549,5359.419434 
	C576.920898,5367.403809 576.754089,5375.388672 576.804504,5383.372559 
	C577.060120,5423.832031 584.529907,5462.703613 602.392639,5499.290039 
	C604.426697,5503.456543 606.088928,5507.804688 608.511475,5513.812012 
	C609.117554,5514.944824 610.017822,5515.747559 612.099792,5517.498535 
	C612.099792,5517.498535 612.556274,5518.985840 612.912170,5521.122070 
	C613.928345,5522.102051 614.944519,5523.081543 617.645691,5526.089844 
	C625.089111,5536.268066 632.532471,5546.446289 640.806519,5557.969727 
	C641.455688,5558.817383 642.241028,5559.511230 643.902161,5560.105957 
	C643.902161,5560.105957 643.945862,5560.846191 644.811401,5562.099609 
	C645.468689,5562.887695 646.242371,5563.537598 647.887817,5564.113281 
	C647.887817,5564.113281 647.951416,5564.869141 648.818237,5566.113281 
	C649.476196,5566.895508 650.249390,5567.539551 651.892090,5568.103516 
	C651.892090,5568.103516 651.958191,5568.857422 652.841248,5570.114258 
	C653.515015,5570.902344 654.308289,5571.541992 655.929382,5572.020020 
	C655.929382,5572.020020 655.975342,5572.727051 656.888733,5574.064453 
z"/>
<path fill="#5F0000" opacity="1.000000" stroke="none" 
	d="
M2904.448975,5643.858887 
	C2904.900635,5644.372559 2905.352051,5644.885742 2906.144775,5646.372559 
	C2896.497559,5647.564453 2886.508545,5647.972168 2876.519775,5647.972656 
	C2206.697021,5648.002930 1536.874268,5648.000488 867.051514,5648.002930 
	C859.053650,5648.002930 851.055725,5648.039062 841.134583,5648.008789 
	C839.211304,5647.958496 839.935608,5646.121582 842.161743,5645.182129 
	C852.379517,5644.193848 860.371277,5644.102539 868.362976,5644.102051 
	C1538.401733,5644.095703 2208.440430,5644.096680 2878.479248,5644.085938 
	C2887.135742,5644.085449 2895.792480,5643.937988 2904.448975,5643.858887 
z"/>
<path fill="#424682" opacity="1.000000" stroke="none" 
	d="
M577.681824,5355.778320 
	C577.395996,5348.466797 576.859924,5341.155762 576.859741,5333.844238 
	C576.823364,4011.196777 576.824829,2688.549316 576.832336,1365.901855 
	C576.832336,1359.903076 576.936401,1353.904175 579.081726,1346.017212 
	C590.498657,1344.066162 599.825745,1343.948364 609.152832,1343.948364 
	C1568.603394,1343.939941 2528.053955,1343.940796 3487.504639,1343.937744 
	C3494.833496,1343.937744 3502.164307,1343.985107 3509.490479,1343.833130 
	C3512.729004,1343.765991 3516.260986,1343.917358 3518.455811,1338.742554 
	C3516.444580,1334.264160 3514.419189,1328.705444 3511.579102,1323.599854 
	C3493.806396,1291.647705 3475.642334,1259.911865 3458.005859,1227.885132 
	C3431.399902,1179.570190 3405.120605,1131.075562 3378.702393,1082.657227 
	C3385.987793,1082.242798 3393.273193,1081.465698 3400.558594,1081.465332 
	C4630.538086,1081.411621 5860.518066,1081.413574 7090.497559,1081.413330 
	C7114.497070,1081.413330 7138.500488,1081.151123 7162.495605,1081.470703 
	C7211.599609,1082.124512 7257.568848,1094.258301 7298.570312,1121.775024 
	C7370.543945,1170.078247 7408.165527,1238.003662 7412.152832,1324.559692 
	C7412.397949,1329.880127 7412.175293,1335.222168 7409.985840,1342.299316 
	C7401.806152,1344.011230 7395.810547,1343.948853 7389.814941,1343.948853 
	C6110.104980,1343.944580 4830.395020,1343.944702 3550.685303,1343.947266 
	C3545.353271,1343.947266 3540.016846,1343.857178 3534.691162,1344.052856 
	C3531.495605,1344.170288 3527.890869,1343.753906 3525.671631,1348.544434 
	C3526.216064,1350.273804 3526.591553,1352.926514 3527.808350,1355.110718 
	C3545.287354,1386.484253 3562.985840,1417.736084 3580.417969,1449.135620 
	C3602.052490,1488.104614 3623.484375,1527.186157 3645.012939,1566.213989 
	C3666.219482,1604.657593 3687.567383,1643.024048 3708.612549,1681.555786 
	C3727.750977,1716.596680 3746.525879,1751.835815 3765.543213,1786.943237 
	C3773.465576,1801.568848 3781.563477,1816.099609 3789.645020,1830.638306 
	C3808.064209,1863.775635 3826.620117,1896.837524 3844.928223,1930.035889 
	C3855.533936,1949.267090 3865.567383,1968.814453 3876.212891,1988.023071 
	C3893.944336,2020.018188 3912.059326,2051.800537 3929.832031,2083.773193 
	C3950.838867,2121.564941 3971.662354,2159.458740 3992.549316,2197.317627 
	C4014.080078,2236.343750 4035.595459,2275.378418 4057.110107,2314.413574 
	C4071.560059,2340.630615 4085.992432,2366.857666 4100.441406,2393.075439 
	C4121.955078,2432.111084 4143.551270,2471.101807 4164.975098,2510.186768 
	C4189.600586,2555.112305 4214.083984,2600.115479 4238.613281,2645.093750 
	C4247.214844,2660.865967 4255.686523,2676.709717 4264.364258,2692.439941 
	C4284.605469,2729.133301 4304.980469,2765.753174 4325.210938,2802.452637 
	C4334.527344,2819.352783 4343.504883,2836.439209 4352.857422,2853.319092 
	C4371.554688,2887.062744 4390.466797,2920.687256 4409.163574,2954.430908 
	C4418.516602,2971.310547 4427.482422,2988.404297 4436.814453,3005.295410 
	C4456.436523,3040.809570 4476.248535,3076.218750 4495.853027,3111.742432 
	C4505.498535,3129.220459 4514.685059,3146.952637 4524.380371,3164.402344 
	C4542.147949,3196.378174 4560.212402,3228.188965 4578.012695,3260.146484 
	C4592.255371,3285.716309 4606.290039,3311.402100 4620.419434,3337.034912 
	C4641.937500,3376.069824 4663.451172,3415.106445 4684.979004,3454.135986 
	C4706.184082,3492.580811 4727.410156,3531.014404 4748.616699,3569.458740 
	C4770.145020,3608.487305 4791.694824,3647.504639 4813.173340,3686.560791 
	C4835.935059,3727.949951 4858.587891,3769.399170 4881.352539,3810.787109 
	C4902.512695,3849.257812 4923.752441,3887.684814 4944.964844,3926.126709 
	C4966.176758,3964.568604 4987.405273,4003.000977 5008.613281,4041.444824 
	C5030.143066,4080.470459 5051.780762,4119.437012 5073.140625,4158.555664 
	C5092.274902,4193.599121 5111.061035,4228.833008 5130.073730,4263.943848 
	C5137.676270,4277.983398 5145.396973,4291.961914 5153.196289,4305.893555 
	C5170.413574,4336.649414 5187.885742,4367.263672 5204.923340,4398.118652 
	C5216.826660,4419.675781 5227.997070,4441.637207 5239.820801,4463.239258 
	C5260.582031,4501.168457 5281.590332,4538.961914 5302.499512,4576.810547 
	C5310.220215,4590.786133 5317.889160,4604.791504 5325.697754,4618.717773 
	C5336.104980,4637.278320 5346.827637,4655.665039 5357.044922,4674.329102 
	C5368.870117,4695.930664 5380.105469,4717.855469 5391.934082,4739.455566 
	C5412.382812,4776.796387 5433.095215,4813.992188 5453.692383,4851.251953 
	C5461.739258,4865.808594 5469.712402,4880.406738 5477.829590,4894.924316 
	C5488.539551,4914.079102 5499.501465,4933.095215 5510.089355,4952.316406 
	C5520.364746,4970.969238 5530.262695,4989.829102 5540.405273,5008.555664 
	C5548.643555,5023.766602 5556.933594,5038.949219 5565.315430,5054.081543 
	C5577.561035,5076.190918 5589.976562,5098.206055 5602.191895,5120.332031 
	C5611.196289,5136.642578 5619.859375,5153.142090 5628.915039,5169.423828 
	C5647.018555,5201.974609 5665.293457,5234.431152 5683.484863,5266.933594 
	C5695.178711,5287.825684 5706.964355,5308.667969 5718.476562,5329.659668 
	C5722.925293,5337.772949 5728.405762,5345.597656 5726.507812,5355.661133 
	C5717.265137,5355.910645 5709.933594,5356.012695 5702.602539,5356.013184 
	C4002.959473,5356.020020 2303.316406,5356.020020 603.673279,5356.009766 
	C595.009460,5356.009277 586.345642,5355.858398 577.681824,5355.778320 
M3923.931641,1234.084717 
	C3923.351807,1247.654053 3925.908691,1260.100342 3933.315186,1272.048584 
	C3954.493408,1306.213989 3988.589600,1309.261475 4019.016113,1301.631470 
	C4050.217529,1293.807007 4073.922363,1251.659302 4064.957764,1219.133423 
	C4052.080078,1172.409058 4015.815186,1155.859009 3971.328369,1166.299316 
	C3946.099609,1172.220337 3922.333252,1202.494629 3923.931641,1234.084717 
z"/>
<path fill="#2D2D61" opacity="1.000000" stroke="none" 
	d="
M5728.418945,5355.465820 
	C5728.405762,5345.597656 5722.925293,5337.772949 5718.476562,5329.659668 
	C5706.964355,5308.667969 5695.178711,5287.825684 5683.484863,5266.933594 
	C5665.293457,5234.431152 5647.018555,5201.974609 5628.915039,5169.423828 
	C5619.859375,5153.142090 5611.196289,5136.642578 5602.191895,5120.332031 
	C5589.976562,5098.206055 5577.561035,5076.190918 5565.315430,5054.081543 
	C5556.933594,5038.949219 5548.643555,5023.766602 5540.405273,5008.555664 
	C5530.262695,4989.829102 5520.364746,4970.969238 5510.089355,4952.316406 
	C5499.501465,4933.095215 5488.539551,4914.079102 5477.829590,4894.924316 
	C5469.712402,4880.406738 5461.739258,4865.808594 5453.692383,4851.251953 
	C5433.095215,4813.992188 5412.382812,4776.796387 5391.934082,4739.455566 
	C5380.105469,4717.855469 5368.870117,4695.930664 5357.044922,4674.329102 
	C5346.827637,4655.665039 5336.104980,4637.278320 5325.697754,4618.717773 
	C5317.889160,4604.791504 5310.220215,4590.786133 5302.499512,4576.810547 
	C5281.590332,4538.961914 5260.582031,4501.168457 5239.820801,4463.239258 
	C5227.997070,4441.637207 5216.826660,4419.675781 5204.923340,4398.118652 
	C5187.885742,4367.263672 5170.413574,4336.649414 5153.196289,4305.893555 
	C5145.396973,4291.961914 5137.676270,4277.983398 5130.073730,4263.943848 
	C5111.061035,4228.833008 5092.274902,4193.599121 5073.140625,4158.555664 
	C5051.780762,4119.437012 5030.143066,4080.470459 5008.613281,4041.444824 
	C4987.405273,4003.000977 4966.176758,3964.568604 4944.964844,3926.126709 
	C4923.752441,3887.684814 4902.512695,3849.257812 4881.352539,3810.787109 
	C4858.587891,3769.399170 4835.935059,3727.949951 4813.173340,3686.560791 
	C4791.694824,3647.504639 4770.145020,3608.487305 4748.616699,3569.458740 
	C4727.410156,3531.014404 4706.184082,3492.580811 4684.979004,3454.135986 
	C4663.451172,3415.106445 4641.937500,3376.069824 4620.419434,3337.034912 
	C4606.290039,3311.402100 4592.255371,3285.716309 4578.012695,3260.146484 
	C4560.212402,3228.188965 4542.147949,3196.378174 4524.380371,3164.402344 
	C4514.685059,3146.952637 4505.498535,3129.220459 4495.853027,3111.742432 
	C4476.248535,3076.218750 4456.436523,3040.809570 4436.814453,3005.295410 
	C4427.482422,2988.404297 4418.516602,2971.310547 4409.163574,2954.430908 
	C4390.466797,2920.687256 4371.554688,2887.062744 4352.857422,2853.319092 
	C4343.504883,2836.439209 4334.527344,2819.352783 4325.210938,2802.452637 
	C4304.980469,2765.753174 4284.605469,2729.133301 4264.364258,2692.439941 
	C4255.686523,2676.709717 4247.214844,2660.865967 4238.613281,2645.093750 
	C4214.083984,2600.115479 4189.600586,2555.112305 4164.975098,2510.186768 
	C4143.551270,2471.101807 4121.955078,2432.111084 4100.441406,2393.075439 
	C4085.992432,2366.857666 4071.560059,2340.630615 4057.110107,2314.413574 
	C4035.595459,2275.378418 4014.080078,2236.343750 3992.549316,2197.317627 
	C3971.662354,2159.458740 3950.838867,2121.564941 3929.832031,2083.773193 
	C3912.059326,2051.800537 3893.944336,2020.018188 3876.212891,1988.023071 
	C3865.567383,1968.814453 3855.533936,1949.267090 3844.928223,1930.035889 
	C3826.620117,1896.837524 3808.064209,1863.775635 3789.645020,1830.638306 
	C3781.563477,1816.099609 3773.465576,1801.568848 3765.543213,1786.943237 
	C3746.525879,1751.835815 3727.750977,1716.596680 3708.612549,1681.555786 
	C3687.567383,1643.024048 3666.219482,1604.657593 3645.012939,1566.213989 
	C3623.484375,1527.186157 3602.052490,1488.104614 3580.417969,1449.135620 
	C3562.985840,1417.736084 3545.287354,1386.484253 3527.808350,1355.110718 
	C3526.591553,1352.926514 3526.216064,1350.273804 3525.671631,1348.544434 
	C3527.890869,1343.753906 3531.495605,1344.170288 3534.691162,1344.052856 
	C3540.016846,1343.857178 3545.353271,1343.947266 3550.685303,1343.947266 
	C4830.395020,1343.944702 6110.104980,1343.944580 7389.814941,1343.948853 
	C7395.810547,1343.948853 7401.806152,1344.011230 7409.641602,1344.064941 
	C7411.768066,1351.391846 7412.305664,1358.698364 7412.306152,1366.005005 
	C7412.342773,2688.745850 7412.341309,4011.486572 7412.334961,5334.227539 
	C7412.334961,5340.224121 7412.241211,5346.221191 7409.995117,5354.074707 
	C7399.141602,5355.960938 7390.484863,5356.016113 7381.827637,5356.016113 
	C6843.080078,5356.020020 6304.332031,5356.016602 5765.584473,5356.041992 
	C5755.602051,5356.042480 5745.619141,5356.375488 5734.429688,5356.389648 
	C5731.621582,5355.972656 5730.020020,5355.719238 5728.418945,5355.465820 
M6991.150879,1700.061401 
	C6989.606934,1696.373047 6988.249023,1692.593628 6986.492188,1689.009644 
	C6962.895020,1640.886597 6912.150391,1616.329346 6859.944336,1627.706787 
	C6809.663574,1638.664673 6773.636230,1682.925537 6772.246582,1735.560669 
	C6772.035645,1743.555054 6772.181152,1751.559204 6772.181152,1759.558838 
	C6772.179199,2733.515869 6772.178711,3707.473145 6772.179688,4681.430176 
	C6772.179688,4688.096680 6771.733398,4694.804199 6772.321289,4701.419434 
	C6773.143066,4710.674805 6773.893555,4720.075195 6776.150879,4729.041992 
	C6788.014160,4776.157715 6834.234375,4818.003418 6897.219238,4811.972656 
	C6950.844727,4806.838867 6994.057617,4761.325684 6996.883301,4706.525391 
	C6997.329102,4697.878906 6997.160645,4689.198242 6997.161133,4680.533203 
	C6997.171387,3706.576172 6997.170898,2732.619141 6997.168945,1758.661987 
	C6997.168945,1751.328979 6997.739258,1743.934326 6996.988281,1736.677490 
	C6995.828125,1725.467407 6993.755371,1714.351807 6991.150879,1700.061401 
z"/>
<path fill="#221C45" opacity="1.000000" stroke="none" 
	d="
M2951.665527,6603.917480 
	C2951.881104,6597.273438 2952.285400,6590.629395 2952.285645,6583.985352 
	C2952.305908,6270.606934 2952.291260,5957.229004 2954.129150,5641.829590 
	C2964.633545,5639.649414 2973.289551,5639.350586 2981.945312,5639.350098 
	C3710.868896,5639.328613 4439.792480,5639.333496 5168.715820,5639.306152 
	C5180.037109,5639.305664 5191.358887,5638.937012 5202.680176,5638.739746 
	C5202.514160,5644.727539 5202.202148,5650.714844 5202.201660,5656.702637 
	C5202.177734,5966.385742 5202.179199,6276.069336 5202.188477,6585.752441 
	C5202.188965,6590.413086 5202.320312,6595.073730 5200.655273,6601.471191 
	C5188.359863,6602.166992 5177.818848,6600.755371 5167.232910,6600.192871 
	C5157.259766,6599.662109 5147.238770,6600.003418 5137.238770,6600.003418 
	C4430.575195,6599.999512 3723.912109,6599.999512 3017.248779,6600.004395 
	C3005.915527,6600.004395 2994.574707,6600.355957 2983.251465,6600.037598 
	C2972.479492,6599.734375 2962.008301,6601.111328 2951.665527,6603.917480 
z"/>
<path fill="#5057A3" opacity="1.000000" stroke="none" 
	d="
M5204.083984,5638.583008 
	C5191.358887,5638.937012 5180.037109,5639.305664 5168.715820,5639.306152 
	C4439.792480,5639.333496 3710.868896,5639.328613 2981.945312,5639.350098 
	C2973.289551,5639.350586 2964.633545,5639.649414 2954.125488,5639.961914 
	C2945.712891,5639.386719 2939.159668,5638.115234 2932.590820,5638.028809 
	C2911.934326,5637.756836 2891.272217,5637.930664 2870.612305,5637.930664 
	C2192.832520,5637.928711 1515.052856,5637.940430 837.273193,5637.836426 
	C821.977173,5637.833984 806.681335,5636.523926 788.710693,5634.645508 
	C784.610596,5633.151367 783.185120,5632.835449 781.759644,5632.519531 
	C774.645325,5631.534180 767.384216,5631.147949 760.444946,5629.447754 
	C741.704041,5624.855957 724.107788,5617.159180 704.794556,5607.242188 
	C700.509949,5605.166504 698.395813,5604.250000 696.281555,5603.333984 
	C691.473328,5599.800293 686.665161,5596.266602 680.281311,5591.689453 
	C678.033142,5589.819336 677.163940,5589.401367 676.098083,5589.391113 
	C671.379639,5585.280273 666.661255,5581.169434 660.371887,5575.747070 
	C658.107361,5573.456055 657.165466,5572.886230 655.975342,5572.727051 
	C655.975342,5572.727051 655.929382,5572.020020 655.277771,5571.279297 
	C653.977295,5569.597168 653.088013,5569.036621 651.958191,5568.857422 
	C651.958191,5568.857422 651.892090,5568.103516 651.237549,5567.327148 
	C649.949890,5565.607910 649.072632,5565.047852 647.951416,5564.869141 
	C647.951416,5564.869141 647.887817,5564.113281 647.233154,5563.331055 
	C645.946045,5561.602051 645.068481,5561.034668 643.945862,5560.846191 
	C643.945862,5560.846191 643.902161,5560.105957 643.249512,5559.308594 
	C641.967712,5557.542480 641.094116,5556.913574 639.975952,5556.624512 
	C632.532471,5546.446289 625.089111,5536.268066 616.590027,5524.027344 
	C614.541748,5520.971680 613.549072,5519.978516 612.556335,5518.985840 
	C612.556274,5518.985840 612.099792,5517.498535 611.505615,5515.902832 
	C610.321838,5513.019043 609.325928,5512.272461 607.923584,5512.068359 
	C606.088928,5507.804688 604.426697,5503.456543 602.392639,5499.290039 
	C584.529907,5462.703613 577.060120,5423.832031 576.804504,5383.372559 
	C576.754089,5375.388672 576.920898,5367.403809 577.334717,5357.598633 
	C586.345642,5355.858398 595.009460,5356.009277 603.673279,5356.009766 
	C2303.316406,5356.020020 4002.959473,5356.020020 5702.602539,5356.013184 
	C5709.933594,5356.012695 5717.265137,5355.910645 5726.507812,5355.661133 
	C5730.020020,5355.719238 5731.621582,5355.972656 5734.711426,5357.761230 
	C5749.675781,5385.219238 5762.793457,5411.336426 5776.714355,5437.017578 
	C5796.326172,5473.196289 5816.490723,5509.076660 5836.502930,5545.038086 
	C5847.798340,5565.335449 5859.561523,5585.379395 5870.520508,5605.854980 
	C5875.800781,5615.720703 5882.638184,5625.052734 5884.026855,5636.680176 
	C5876.088867,5637.097168 5868.151367,5637.875488 5860.213379,5637.877930 
	C5649.947266,5637.943848 5439.681152,5637.923828 5229.415039,5637.949707 
	C5221.439453,5637.950684 5213.463379,5638.260742 5204.083984,5638.583008 
z"/>
<path fill="#424682" opacity="1.000000" stroke="none" 
	d="
M2950.125488,6603.981445 
	C2962.008301,6601.111328 2972.479492,6599.734375 2983.251465,6600.037598 
	C2994.574707,6600.355957 3005.915527,6600.004395 3017.248779,6600.004395 
	C3723.912109,6599.999512 4430.575195,6599.999512 5137.238770,6600.003418 
	C5147.238770,6600.003418 5157.259766,6599.662109 5167.232910,6600.192871 
	C5177.818848,6600.755371 5188.359863,6602.166992 5200.760254,6603.298340 
	C5252.665039,6611.100586 5299.483398,6627.501465 5341.547363,6656.144531 
	C5424.409180,6712.568848 5472.575195,6790.688477 5486.852051,6889.806152 
	C5487.221191,6892.368652 5486.898438,6895.030762 5486.898438,6898.267090 
	C5483.197266,6898.851074 5480.018555,6899.689941 5476.813477,6899.809082 
	C5420.190918,6901.913086 2687.251465,6900.455078 2669.118896,6898.286133 
	C2666.114990,6892.163086 2668.154297,6885.603516 2669.235596,6879.313477 
	C2684.767578,6788.967773 2729.416016,6716.494629 2803.574219,6662.580078 
	C2846.944092,6631.049805 2895.645020,6612.154297 2950.125488,6603.981445 
z"/>
<path fill="#5459A3" opacity="1.000000" stroke="none" 
	d="
M3376.992188,1082.218018 
	C3405.120605,1131.075562 3431.399902,1179.570190 3458.005859,1227.885132 
	C3475.642334,1259.911865 3493.806396,1291.647705 3511.579102,1323.599854 
	C3514.419189,1328.705444 3516.444580,1334.264160 3518.455811,1338.742554 
	C3516.260986,1343.917358 3512.729004,1343.765991 3509.490479,1343.833130 
	C3502.164307,1343.985107 3494.833496,1343.937744 3487.504639,1343.937744 
	C2528.053955,1343.940796 1568.603394,1343.939941 609.152832,1343.948364 
	C599.825745,1343.948364 590.498657,1344.066162 579.409180,1344.186890 
	C574.255432,1274.956055 595.803040,1214.373047 642.125427,1162.926147 
	C678.992249,1121.980835 725.015869,1096.324463 779.098572,1086.194580 
	C796.643677,1082.908203 814.834167,1081.856445 832.731262,1081.841309 
	C1132.560181,1081.587402 1432.389648,1081.662109 1732.218872,1081.660034 
	C2268.580078,1081.656372 2804.941406,1081.649414 3341.302734,1081.650757 
	C3352.629150,1081.650757 3363.955811,1081.734253 3376.992188,1082.218018 
z"/>
<path fill="#424682" opacity="1.000000" stroke="none" 
	d="
M5885.843750,5637.166016 
	C5882.638184,5625.052734 5875.800781,5615.720703 5870.520508,5605.854980 
	C5859.561523,5585.379395 5847.798340,5565.335449 5836.502930,5545.038086 
	C5816.490723,5509.076660 5796.326172,5473.196289 5776.714355,5437.017578 
	C5762.793457,5411.336426 5749.675781,5385.219238 5735.918457,5357.924805 
	C5745.619141,5356.375488 5755.602051,5356.042480 5765.584473,5356.041992 
	C6304.332031,5356.016602 6843.080078,5356.020020 7381.827637,5356.016113 
	C7390.484863,5356.016113 7399.141602,5355.960938 7409.638672,5355.913086 
	C7413.952637,5392.702637 7411.943848,5429.021484 7400.639648,5464.497559 
	C7368.799805,5564.423828 7279.161133,5633.194824 7174.390137,5637.773438 
	C7165.745117,5638.151367 7157.077637,5638.112305 7148.420898,5638.112793 
	C6734.820801,5638.132812 6321.221191,5638.137695 5907.621094,5638.120117 
	C5900.967773,5638.119629 5894.314453,5637.814453 5885.843750,5637.166016 
z"/>
<path fill="#E5F1F4" opacity="1.000000" stroke="none" 
	d="
M2906.232422,5643.869141 
	C2895.792480,5643.937988 2887.135742,5644.085449 2878.479248,5644.085938 
	C2208.440430,5644.096680 1538.401733,5644.095703 868.362976,5644.102051 
	C860.371277,5644.102539 852.379517,5644.193848 842.560669,5644.279297 
	C832.895996,5644.037598 825.058533,5643.760254 817.171631,5643.480957 
	C817.371399,5641.963379 817.276489,5641.379883 817.511047,5641.176758 
	C817.994934,5640.758789 818.654419,5640.282715 819.241760,5640.282715 
	C1526.132324,5640.231934 2233.022949,5640.216797 2939.913330,5640.273438 
	C2941.039307,5640.273438 2942.165527,5641.323242 2945.778320,5643.118164 
	C2937.568115,5643.384766 2931.787109,5643.633789 2926.003418,5643.744629 
	C2920.008789,5643.859375 2914.011719,5643.840332 2906.232422,5643.869141 
z"/>
<path fill="#E5F1F4" opacity="1.000000" stroke="none" 
	d="
M696.857605,5604.406250 
	C698.395813,5604.250000 700.509949,5605.166504 703.367432,5606.982422 
	C701.885010,5607.080566 699.659302,5606.279785 696.857605,5604.406250 
z"/>
<path fill="#E5F1F4" opacity="1.000000" stroke="none" 
	d="
M640.391235,5557.296875 
	C641.094116,5556.913574 641.967712,5557.542480 642.879639,5559.281250 
	C642.241028,5559.511230 641.455688,5558.817383 640.391235,5557.296875 
z"/>
<path fill="#E5F1F4" opacity="1.000000" stroke="none" 
	d="
M644.378662,5561.472656 
	C645.068481,5561.034668 645.946045,5561.602051 646.855469,5563.298828 
	C646.242371,5563.537598 645.468689,5562.887695 644.378662,5561.472656 
z"/>
<path fill="#E5F1F4" opacity="1.000000" stroke="none" 
	d="
M648.384827,5565.491211 
	C649.072632,5565.047852 649.949890,5565.607910 650.860474,5567.297852 
	C650.249390,5567.539551 649.476196,5566.895508 648.384827,5565.491211 
z"/>
<path fill="#E5F1F4" opacity="1.000000" stroke="none" 
	d="
M652.399719,5569.485840 
	C653.088013,5569.036621 653.977295,5569.597168 654.923645,5571.286133 
	C654.308289,5571.541992 653.515015,5570.902344 652.399719,5569.485840 
z"/>
<path fill="#E5F1F4" opacity="1.000000" stroke="none" 
	d="
M656.432007,5573.395508 
	C657.165466,5572.886230 658.107361,5573.456055 659.134888,5575.210938 
	C658.466675,5575.536621 657.606628,5574.895996 656.432007,5573.395508 
z"/>
<path fill="#E5F1F4" opacity="1.000000" stroke="none" 
	d="
M676.559509,5589.922852 
	C677.163940,5589.401367 678.033142,5589.819336 679.042603,5591.306641 
	C678.498962,5591.610352 677.712708,5591.105957 676.559509,5589.922852 
z"/>
<path fill="#5459A3" opacity="1.000000" stroke="none" 
	d="
M782.487793,5633.420898 
	C783.185120,5632.835449 784.610596,5633.151367 786.862915,5634.185547 
	C786.198486,5634.710449 784.707214,5634.516602 782.487793,5633.420898 
z"/>
<path fill="#B6CFE5" opacity="1.000000" stroke="none" 
	d="
M612.734253,5520.053711 
	C613.549072,5519.978516 614.541748,5520.971680 615.747559,5523.013184 
	C614.944519,5523.081543 613.928345,5522.102051 612.734253,5520.053711 
z"/>
<path fill="#B6CFE5" opacity="1.000000" stroke="none" 
	d="
M608.217529,5512.940430 
	C609.325928,5512.272461 610.321838,5513.019043 611.061890,5515.263672 
	C610.017822,5515.747559 609.117554,5514.944824 608.217529,5512.940430 
z"/>
<path fill="#2D2D62" opacity="1.000000" stroke="none" 
	d="
M3923.932617,1232.331665 
	C3922.333252,1202.494629 3946.099609,1172.220337 3971.328369,1166.299316 
	C4015.815186,1155.859009 4052.080078,1172.409058 4064.957764,1219.133423 
	C4073.922363,1251.659302 4050.217529,1293.807007 4019.016113,1301.631470 
	C3988.589600,1309.261475 3954.493408,1306.213989 3933.315186,1272.048584 
	C3925.908691,1260.100342 3923.351807,1247.654053 3923.932617,1232.331665 
z"/>
<path fill="#FEFEFE" opacity="1.000000" stroke="none" 
	d="
M6991.610352,1701.628662 
	C6993.755371,1714.351807 6995.828125,1725.467407 6996.988281,1736.677490 
	C6997.739258,1743.934326 6997.168945,1751.328979 6997.168945,1758.661987 
	C6997.170898,2732.619141 6997.171387,3706.576172 6997.161133,4680.533203 
	C6997.160645,4689.198242 6997.329102,4697.878906 6996.883301,4706.525391 
	C6994.057617,4761.325684 6950.844727,4806.838867 6897.219238,4811.972656 
	C6834.234375,4818.003418 6788.014160,4776.157715 6776.150879,4729.041992 
	C6773.893555,4720.075195 6773.143066,4710.674805 6772.321289,4701.419434 
	C6771.733398,4694.804199 6772.179688,4688.096680 6772.179688,4681.430176 
	C6772.178711,3707.473145 6772.179199,2733.515869 6772.181152,1759.558838 
	C6772.181152,1751.559204 6772.035645,1743.555054 6772.246582,1735.560669 
	C6773.636230,1682.925537 6809.663574,1638.664673 6859.944336,1627.706787 
	C6912.150391,1616.329346 6962.895020,1640.886597 6986.492188,1689.009644 
	C6988.249023,1692.593628 6989.606934,1696.373047 6991.610352,1701.628662 
z"/>
</svg>